<mxfile host="app.diagrams.net" modified="2023-10-08T09:45:04.620Z" agent="Mozilla/5.0 (Macintosh; Intel Mac OS X 10_15_7) AppleWebKit/537.36 (KHTML, like Gecko) Chrome/117.0.0.0 Safari/537.36" etag="vbTo2CjGAHpQpbZwALfJ" version="22.0.4" type="github">
  <diagram id="prtHgNgQTEPvFCAcTncT" name="Page-1">
    <mxGraphModel dx="1166" dy="1707" grid="1" gridSize="10" guides="1" tooltips="1" connect="1" arrows="1" fold="1" page="1" pageScale="1" pageWidth="827" pageHeight="1169" math="0" shadow="0">
      <root>
        <mxCell id="0" />
        <mxCell id="1" parent="0" />
        <mxCell id="dNxyNK7c78bLwvsdeMH5-19" value="矿机线上业务流程" style="swimlane;html=1;childLayout=stackLayout;resizeParent=1;resizeParentMax=0;horizontal=0;startSize=20;horizontalStack=0;" parent="1" vertex="1">
          <mxGeometry x="40" y="40" width="680" height="360" as="geometry" />
        </mxCell>
        <mxCell id="dNxyNK7c78bLwvsdeMH5-20" value="运营" style="swimlane;html=1;startSize=20;horizontal=0;" parent="dNxyNK7c78bLwvsdeMH5-19" vertex="1">
          <mxGeometry x="20" width="660" height="120" as="geometry" />
        </mxCell>
        <mxCell id="eJ8lgUgesERh-Eou_Fsk-1" value="建矿机套餐" style="rounded=1;whiteSpace=wrap;html=1;" vertex="1" parent="dNxyNK7c78bLwvsdeMH5-20">
          <mxGeometry x="30" y="45" width="90" height="30" as="geometry" />
        </mxCell>
        <mxCell id="eJ8lgUgesERh-Eou_Fsk-6" value="修改订单价格" style="shape=parallelogram;perimeter=parallelogramPerimeter;whiteSpace=wrap;html=1;fixedSize=1;" vertex="1" parent="dNxyNK7c78bLwvsdeMH5-20">
          <mxGeometry x="140" y="45" width="120" height="30" as="geometry" />
        </mxCell>
        <mxCell id="eJ8lgUgesERh-Eou_Fsk-11" value="后台补单&lt;br&gt;输入UUID，套餐ID 创建订单" style="shape=document;whiteSpace=wrap;html=1;boundedLbl=1;" vertex="1" parent="dNxyNK7c78bLwvsdeMH5-20">
          <mxGeometry x="280" y="20" width="110" height="70" as="geometry" />
        </mxCell>
        <mxCell id="eJ8lgUgesERh-Eou_Fsk-24" value="" style="edgeStyle=orthogonalEdgeStyle;rounded=0;orthogonalLoop=1;jettySize=auto;html=1;strokeWidth=2;fillColor=#f8cecc;strokeColor=#b85450;dashed=1;dashPattern=1 1;entryX=0;entryY=0.5;entryDx=0;entryDy=0;startArrow=oval;startFill=0;" edge="1" parent="dNxyNK7c78bLwvsdeMH5-20" target="eJ8lgUgesERh-Eou_Fsk-7">
          <mxGeometry relative="1" as="geometry">
            <mxPoint x="250" y="60" as="sourcePoint" />
            <mxPoint x="280" y="195" as="targetPoint" />
            <Array as="points">
              <mxPoint x="260" y="60" />
              <mxPoint x="260" y="185" />
            </Array>
          </mxGeometry>
        </mxCell>
        <mxCell id="dNxyNK7c78bLwvsdeMH5-21" value="用户" style="swimlane;html=1;startSize=20;horizontal=0;" parent="dNxyNK7c78bLwvsdeMH5-19" vertex="1">
          <mxGeometry x="20" y="120" width="660" height="120" as="geometry" />
        </mxCell>
        <mxCell id="eJ8lgUgesERh-Eou_Fsk-2" value="下单购买&lt;br&gt;矿机套餐" style="rounded=1;whiteSpace=wrap;html=1;" vertex="1" parent="dNxyNK7c78bLwvsdeMH5-21">
          <mxGeometry x="50" y="50" width="80" height="30" as="geometry" />
        </mxCell>
        <mxCell id="eJ8lgUgesERh-Eou_Fsk-5" value="生成待支付订单" style="shape=parallelogram;perimeter=parallelogramPerimeter;whiteSpace=wrap;html=1;fixedSize=1;" vertex="1" parent="dNxyNK7c78bLwvsdeMH5-21">
          <mxGeometry x="144" y="50" width="110" height="30" as="geometry" />
        </mxCell>
        <mxCell id="eJ8lgUgesERh-Eou_Fsk-7" value="刷新订单&amp;amp;付款" style="shape=parallelogram;perimeter=parallelogramPerimeter;whiteSpace=wrap;html=1;fixedSize=1;" vertex="1" parent="dNxyNK7c78bLwvsdeMH5-21">
          <mxGeometry x="272" y="49" width="120" height="30" as="geometry" />
        </mxCell>
        <mxCell id="eJ8lgUgesERh-Eou_Fsk-21" value="" style="edgeStyle=orthogonalEdgeStyle;rounded=0;orthogonalLoop=1;jettySize=auto;html=1;strokeWidth=2;fillColor=#f8cecc;strokeColor=#b85450;dashed=1;dashPattern=1 1;entryX=0;entryY=0.5;entryDx=0;entryDy=0;exitX=1;exitY=0.5;exitDx=0;exitDy=0;" edge="1" parent="dNxyNK7c78bLwvsdeMH5-21" source="eJ8lgUgesERh-Eou_Fsk-2" target="eJ8lgUgesERh-Eou_Fsk-5">
          <mxGeometry relative="1" as="geometry">
            <mxPoint x="99" y="174" as="sourcePoint" />
            <mxPoint x="99" y="84" as="targetPoint" />
            <Array as="points" />
          </mxGeometry>
        </mxCell>
        <mxCell id="dNxyNK7c78bLwvsdeMH5-22" value="系统" style="swimlane;html=1;startSize=20;horizontal=0;" parent="dNxyNK7c78bLwvsdeMH5-19" vertex="1">
          <mxGeometry x="20" y="240" width="660" height="120" as="geometry" />
        </mxCell>
        <mxCell id="eJ8lgUgesERh-Eou_Fsk-31" value="" style="edgeStyle=orthogonalEdgeStyle;rounded=0;orthogonalLoop=1;jettySize=auto;html=1;dashed=1;dashPattern=1 1;strokeWidth=2;fillColor=#f8cecc;strokeColor=#b85450;startArrow=oval;startFill=0;" edge="1" parent="dNxyNK7c78bLwvsdeMH5-22" source="eJ8lgUgesERh-Eou_Fsk-9" target="eJ8lgUgesERh-Eou_Fsk-12">
          <mxGeometry relative="1" as="geometry">
            <Array as="points">
              <mxPoint x="350" y="60" />
              <mxPoint x="350" y="60" />
            </Array>
          </mxGeometry>
        </mxCell>
        <mxCell id="eJ8lgUgesERh-Eou_Fsk-9" value="订单生效" style="shape=parallelogram;perimeter=parallelogramPerimeter;whiteSpace=wrap;html=1;fixedSize=1;" vertex="1" parent="dNxyNK7c78bLwvsdeMH5-22">
          <mxGeometry x="250" y="45" width="100" height="30" as="geometry" />
        </mxCell>
        <mxCell id="eJ8lgUgesERh-Eou_Fsk-29" value="" style="edgeStyle=orthogonalEdgeStyle;rounded=0;orthogonalLoop=1;jettySize=auto;html=1;dashed=1;dashPattern=1 2;strokeWidth=2;fillColor=#f8cecc;strokeColor=#b85450;startArrow=oval;startFill=0;" edge="1" parent="dNxyNK7c78bLwvsdeMH5-22" source="eJ8lgUgesERh-Eou_Fsk-12" target="eJ8lgUgesERh-Eou_Fsk-13">
          <mxGeometry relative="1" as="geometry" />
        </mxCell>
        <mxCell id="eJ8lgUgesERh-Eou_Fsk-12" value="收益发放" style="shape=parallelogram;perimeter=parallelogramPerimeter;whiteSpace=wrap;html=1;fixedSize=1;" vertex="1" parent="dNxyNK7c78bLwvsdeMH5-22">
          <mxGeometry x="361" y="45" width="106" height="30" as="geometry" />
        </mxCell>
        <mxCell id="eJ8lgUgesERh-Eou_Fsk-13" value="每月初扣除&lt;br&gt;电费+机位费" style="shape=parallelogram;perimeter=parallelogramPerimeter;whiteSpace=wrap;html=1;fixedSize=1;" vertex="1" parent="dNxyNK7c78bLwvsdeMH5-22">
          <mxGeometry x="476" y="45" width="120" height="30" as="geometry" />
        </mxCell>
        <mxCell id="eJ8lgUgesERh-Eou_Fsk-16" value="App端展示套餐" style="shape=parallelogram;perimeter=parallelogramPerimeter;whiteSpace=wrap;html=1;fixedSize=1;" vertex="1" parent="dNxyNK7c78bLwvsdeMH5-22">
          <mxGeometry x="31" y="45" width="120" height="30" as="geometry" />
        </mxCell>
        <mxCell id="eJ8lgUgesERh-Eou_Fsk-17" value="" style="edgeStyle=orthogonalEdgeStyle;rounded=0;orthogonalLoop=1;jettySize=auto;html=1;entryX=0;entryY=0.25;entryDx=0;entryDy=0;fillColor=#f8cecc;strokeColor=#b85450;strokeWidth=2;startArrow=oval;startFill=0;dashed=1;dashPattern=1 1;" edge="1" parent="dNxyNK7c78bLwvsdeMH5-19" source="eJ8lgUgesERh-Eou_Fsk-1" target="eJ8lgUgesERh-Eou_Fsk-16">
          <mxGeometry relative="1" as="geometry">
            <Array as="points">
              <mxPoint x="95" y="140" />
              <mxPoint x="50" y="140" />
              <mxPoint x="50" y="294" />
            </Array>
          </mxGeometry>
        </mxCell>
        <mxCell id="eJ8lgUgesERh-Eou_Fsk-19" value="" style="edgeStyle=orthogonalEdgeStyle;rounded=0;orthogonalLoop=1;jettySize=auto;html=1;strokeWidth=2;fillColor=#f8cecc;strokeColor=#b85450;dashed=1;dashPattern=1 1;startArrow=oval;startFill=0;entryX=0.613;entryY=1.05;entryDx=0;entryDy=0;entryPerimeter=0;" edge="1" parent="dNxyNK7c78bLwvsdeMH5-19">
          <mxGeometry relative="1" as="geometry">
            <mxPoint x="110" y="284" as="sourcePoint" />
            <mxPoint x="110.03999999999996" y="201.5" as="targetPoint" />
            <Array as="points" />
          </mxGeometry>
        </mxCell>
        <mxCell id="eJ8lgUgesERh-Eou_Fsk-23" value="" style="edgeStyle=orthogonalEdgeStyle;rounded=0;orthogonalLoop=1;jettySize=auto;html=1;strokeWidth=2;fillColor=#f8cecc;strokeColor=#b85450;dashed=1;dashPattern=1 1;exitX=1.027;exitY=0.367;exitDx=0;exitDy=0;exitPerimeter=0;startArrow=oval;startFill=0;" edge="1" parent="dNxyNK7c78bLwvsdeMH5-19" source="eJ8lgUgesERh-Eou_Fsk-11" target="eJ8lgUgesERh-Eou_Fsk-9">
          <mxGeometry relative="1" as="geometry">
            <mxPoint x="230" y="180" as="sourcePoint" />
            <mxPoint x="230" y="85" as="targetPoint" />
            <Array as="points">
              <mxPoint x="420" y="46" />
              <mxPoint x="420" y="220" />
              <mxPoint x="260" y="220" />
              <mxPoint x="260" y="300" />
            </Array>
          </mxGeometry>
        </mxCell>
        <mxCell id="eJ8lgUgesERh-Eou_Fsk-15" value="每月初扣除&lt;br&gt;电费+机位费" style="shape=parallelogram;perimeter=parallelogramPerimeter;whiteSpace=wrap;html=1;fixedSize=1;" vertex="1" parent="1">
          <mxGeometry x="510" y="640" width="120" height="30" as="geometry" />
        </mxCell>
        <mxCell id="eJ8lgUgesERh-Eou_Fsk-22" value="" style="edgeStyle=orthogonalEdgeStyle;rounded=0;orthogonalLoop=1;jettySize=auto;html=1;strokeWidth=2;fillColor=#f8cecc;strokeColor=#b85450;dashed=1;dashPattern=1 1;entryX=0.5;entryY=1;entryDx=0;entryDy=0;startArrow=oval;startFill=0;" edge="1" parent="1" target="eJ8lgUgesERh-Eou_Fsk-6">
          <mxGeometry relative="1" as="geometry">
            <mxPoint x="260" y="210" as="sourcePoint" />
            <mxPoint x="220" y="235" as="targetPoint" />
            <Array as="points" />
          </mxGeometry>
        </mxCell>
        <mxCell id="eJ8lgUgesERh-Eou_Fsk-26" value="" style="edgeStyle=orthogonalEdgeStyle;rounded=0;orthogonalLoop=1;jettySize=auto;html=1;strokeWidth=2;fillColor=#f8cecc;strokeColor=#b85450;dashed=1;dashPattern=1 1;startArrow=oval;startFill=0;exitX=1;exitY=0.5;exitDx=0;exitDy=0;" edge="1" parent="1" source="eJ8lgUgesERh-Eou_Fsk-7">
          <mxGeometry relative="1" as="geometry">
            <mxPoint x="440" y="225" as="sourcePoint" />
            <mxPoint x="320" y="340" as="targetPoint" />
            <Array as="points">
              <mxPoint x="460" y="225" />
              <mxPoint x="460" y="260" />
              <mxPoint x="300" y="260" />
              <mxPoint x="300" y="340" />
            </Array>
          </mxGeometry>
        </mxCell>
        <mxCell id="eJ8lgUgesERh-Eou_Fsk-28" value="" style="edgeStyle=orthogonalEdgeStyle;rounded=0;orthogonalLoop=1;jettySize=auto;html=1;strokeWidth=2;fillColor=#f8cecc;strokeColor=#b85450;dashed=1;dashPattern=1 1;" edge="1" parent="1">
          <mxGeometry relative="1" as="geometry">
            <mxPoint x="620" y="-20" as="sourcePoint" />
            <mxPoint x="640" y="-20" as="targetPoint" />
            <Array as="points">
              <mxPoint x="620" y="-20" />
            </Array>
          </mxGeometry>
        </mxCell>
      </root>
    </mxGraphModel>
  </diagram>
</mxfile>
